<svg width="866.0087890625px" height="138.8px" xmlns="http://www.w3.org/2000/svg" viewBox="-183.00439453125 5.599999999999994 866.0087890625 138.8" style="background: rgba(255, 255, 255, 0);" preserveAspectRatio="xMidYMid"><defs><linearGradient id="editing-glowing-gradient" x1="0.8146601955249185" x2="0.18533980447508147" y1="0.8885729807284856" y2="0.11142701927151444"><stop offset="0" stop-color="#a731d3"></stop><stop offset="1" stop-color="#3286e8"></stop></linearGradient><filter id="editing-glowing" x="-100%" y="-100%" width="300%" height="300%"><feGaussianBlur in="SourceGraphic" result="blur" stdDeviation="10"></feGaussianBlur><feMerge><feMergeNode in="blur"></feMergeNode><feMergeNode in="SourceGraphic"></feMergeNode></feMerge></filter></defs><g filter="url(#editing-glowing)"><g transform="translate(-60.97468799352646, 107.8950023651123)"><path d="M49.02-49.79L49.02-34.30L38.02-34.30L38.02-39.30L33.92-39.30L33.92-10.50L38.40-10.50L38.40 0L11.52 0L11.52-10.50L16-10.50L16-39.30L11.90-39.30L11.90-34.30L0.90-34.30L0.90-49.79L49.02-49.79ZM66.88 0.90L66.88 0.90Q60.10 0.90 56.67-2.40L56.67-2.40L56.67-2.40Q53.25-5.70 53.25-13.50L53.25-13.50L53.25-25.09L50.43-25.09L50.43-35.58L50.43-35.58Q52.86-35.58 54.08-36.83L54.08-36.83L54.08-36.83Q55.30-38.08 55.30-40.26L55.30-40.26L55.30-43.14L68.86-43.14L68.86-35.58L77.50-35.58L77.50-25.09L68.86-25.09L68.86-14.59L68.86-14.59Q68.86-12.48 69.79-11.49L69.79-11.49L69.79-11.49Q70.72-10.50 72.58-10.50L72.58-10.50L72.58-10.50Q75.01-10.50 77.89-11.07L77.89-11.07L77.89-1.02L77.89-1.02Q76.10-0.32 73.06 0.29L73.06 0.29L73.06 0.29Q70.02 0.90 66.88 0.90L66.88 0.90ZM88.58-35.07L81.34-35.07L80.38-49.79L89.54-49.79L88.58-35.07ZM107.84 0.90L107.84 0.90Q99.78 0.90 92.29-1.66L92.29-1.66L92.29-11.14L102.66-11.14L102.66-10.50L102.66-10.50Q102.66-7.42 106.56-7.42L106.56-7.42L106.56-7.42Q110.02-7.42 110.02-9.79L110.02-9.79L110.02-9.79Q110.02-11.07 109.02-11.71L109.02-11.71L109.02-11.71Q108.03-12.35 105.54-12.80L105.54-12.80L102.34-13.38L102.34-13.38Q92.29-15.17 92.29-24.77L92.29-24.77L92.29-24.77Q92.29-30.34 96.51-33.41L96.51-33.41L96.51-33.41Q100.74-36.48 107.90-36.48L107.90-36.48L107.90-36.48Q115.90-36.48 121.41-33.79L121.41-33.79L121.41-24.90L111.68-24.90L111.68-25.54L111.68-25.54Q111.68-26.82 110.82-27.49L110.82-27.49L110.82-27.49Q109.95-28.16 108.29-28.16L108.29-28.16L108.29-28.16Q105.09-28.16 105.09-26.11L105.09-26.11L105.09-26.11Q105.09-25.02 105.98-24.45L105.98-24.45L105.98-24.45Q106.88-23.87 109.25-23.36L109.25-23.36L112.90-22.66L112.90-22.66Q118.59-21.57 121.02-18.62L121.02-18.62L121.02-18.62Q123.46-15.68 123.46-11.07L123.46-11.07L123.46-11.07Q123.46-5.25 119.39-2.18L119.39-2.18L119.39-2.18Q115.33 0.90 107.84 0.90L107.84 0.90ZM169.15 0L144.83 0L144.83-10.50L148.03-10.50L148.03-39.30L144.83-39.30L144.83-49.79L169.15-49.79L169.15-39.30L165.95-39.30L165.95-10.50L169.15-10.50L169.15 0ZM233.41-10.50L236.22-10.50L236.22 0L216 0L216-10.50L218.69-10.50L218.69-20.99L218.69-20.99Q218.69-23.10 217.79-24.10L217.79-24.10L217.79-24.10Q216.90-25.09 215.10-25.09L215.10-25.09L215.10-25.09Q211.26-25.09 211.26-20.99L211.26-20.99L211.26-10.50L213.95-10.50L213.95 0L193.86 0L193.86-10.50L196.54-10.50L196.54-20.99L196.54-20.99Q196.54-23.10 195.65-24.10L195.65-24.10L195.65-24.10Q194.75-25.09 192.96-25.09L192.96-25.09L192.96-25.09Q189.12-25.09 189.12-20.99L189.12-20.99L189.12-10.50L191.81-10.50L191.81 0L171.58 0L171.58-10.50L174.40-10.50L174.40-25.09L171.58-25.09L171.58-35.58L189.12-35.58L189.12-30.59L189.12-30.59Q193.73-36.48 200.64-36.48L200.64-36.48L200.64-36.48Q204.54-36.48 207.01-34.66L207.01-34.66L207.01-34.66Q209.47-32.83 210.50-29.50L210.50-29.50L210.50-29.50Q212.80-32.83 215.78-34.62L215.78-34.62L215.78-34.62Q218.75-36.42 222.78-36.42L222.78-36.42L222.78-36.42Q228.10-36.42 230.75-33.09L230.75-33.09L230.75-33.09Q233.41-29.76 233.41-23.94L233.41-23.94L233.41-10.50ZM272.77-10.50L275.58-10.50L275.58 0L258.69 0L258.69-4.35L258.69-4.35Q257.28-2.30 254.75-0.70L254.75-0.70L254.75-0.70Q252.22 0.90 248.58 0.90L248.58 0.90L248.58 0.90Q243.78 0.90 241.02-1.66L241.02-1.66L241.02-1.66Q238.27-4.22 238.27-8.90L238.27-8.90L238.27-8.90Q238.27-20.99 258.82-21.31L258.82-21.31L258.82-21.31Q258.62-23.49 257.15-24.29L257.15-24.29L257.15-24.29Q255.68-25.09 252.16-25.09L252.16-25.09L252.16-25.09Q249.28-25.09 245.98-24.48L245.98-24.48L245.98-24.48Q242.69-23.87 239.94-22.85L239.94-22.85L239.94-34.62L239.94-34.62Q243.33-35.46 247.30-35.97L247.30-35.97L247.30-35.97Q251.26-36.48 255.04-36.48L255.04-36.48L255.04-36.48Q264.58-36.48 268.67-33.02L268.67-33.02L268.67-33.02Q272.77-29.57 272.77-22.34L272.77-22.34L272.77-10.50ZM258.69-14.59L258.69-14.98L258.69-14.98Q255.81-14.98 254.24-14.21L254.24-14.21L254.24-14.21Q252.67-13.44 252.67-11.65L252.67-11.65L252.67-11.65Q252.67-10.56 253.34-9.89L253.34-9.89L253.34-9.89Q254.02-9.22 255.23-9.22L255.23-9.22L255.23-9.22Q256.90-9.22 257.79-10.62L257.79-10.62L257.79-10.62Q258.69-12.03 258.69-14.59L258.69-14.59ZM296.38 15.10L296.38 15.10Q291.78 15.10 287.58 14.46L287.58 14.46L287.58 14.46Q283.39 13.82 281.09 12.99L281.09 12.99L281.09 2.50L281.09 2.50Q287.87 3.71 293.25 3.71L293.25 3.71L293.25 3.71Q296.90 3.71 298.53 2.59L298.53 2.59L298.53 2.59Q300.16 1.47 300.16-1.60L300.16-1.60L300.16-4.35L300.16-4.35Q298.56-2.30 296.03-0.70L296.03-0.70L296.03-0.70Q293.50 0.90 290.24 0.90L290.24 0.90L290.24 0.90Q283.71 0.90 280.42-3.97L280.42-3.97L280.42-3.97Q277.12-8.83 277.12-17.79L277.12-17.79L277.12-17.79Q277.12-26.75 280.42-31.62L280.42-31.62L280.42-31.62Q283.71-36.48 290.24-36.48L290.24-36.48L290.24-36.48Q293.50-36.48 296.03-34.88L296.03-34.88L296.03-34.88Q298.56-33.28 300.16-31.23L300.16-31.23L300.16-35.58L317.70-35.58L317.70-25.09L314.88-25.09L314.88-2.56L314.88-2.56Q314.88 6.72 310.27 10.91L310.27 10.91L310.27 10.91Q305.66 15.10 296.38 15.10L296.38 15.10ZM296.45-10.50L296.45-10.50Q298.30-10.50 299.23-11.49L299.23-11.49L299.23-11.49Q300.16-12.48 300.16-14.59L300.16-14.59L300.16-20.99L300.16-20.99Q300.16-23.10 299.23-24.10L299.23-24.10L299.23-24.10Q298.30-25.09 296.45-25.09L296.45-25.09L296.45-25.09Q294.59-25.09 293.66-24.10L293.66-24.10L293.66-24.10Q292.74-23.10 292.74-20.99L292.74-20.99L292.74-14.59L292.74-14.59Q292.74-12.48 293.66-11.49L293.66-11.49L293.66-11.49Q294.59-10.50 296.45-10.50L296.45-10.50ZM338.56 0.90L338.56 0.90Q329.47 0.90 324.35-3.87L324.35-3.87L324.35-3.87Q319.23-8.64 319.23-17.79L319.23-17.79L319.23-17.79Q319.23-26.94 324.35-31.71L324.35-31.71L324.35-31.71Q329.47-36.48 338.56-36.48L338.56-36.48L338.56-36.48Q347.58-36.48 351.58-31.78L351.58-31.78L351.58-31.78Q355.58-27.07 355.58-20.10L355.58-20.10L355.58-15.49L334.85-15.49L334.85-15.10L334.85-15.10Q334.85-12.74 336.26-11.62L336.26-11.62L336.26-11.62Q337.66-10.50 340.93-10.50L340.93-10.50L340.93-10.50Q344.83-10.50 348.35-11.07L348.35-11.07L348.35-11.07Q351.87-11.65 354.50-12.54L354.50-12.54L354.50-2.30L354.50-2.30Q352.26-1.09 347.94-0.10L347.94-0.10L347.94-0.10Q343.62 0.90 338.56 0.90L338.56 0.90ZM334.85-22.53L342.27-22.53L342.27-23.30L342.27-23.30Q342.27-25.47 341.34-26.43L341.34-26.43L341.34-26.43Q340.42-27.39 338.56-27.39L338.56-27.39L338.56-27.39Q336.70-27.39 335.78-26.40L335.78-26.40L335.78-26.40Q334.85-25.41 334.85-23.30L334.85-23.30L334.85-22.53ZM425.09-25.54L425.09-16L421.89-16L421.89-3.20L421.89-3.20Q419.07-1.60 413.66-0.35L413.66-0.35L413.66-0.35Q408.26 0.90 401.98 0.90L401.98 0.90L401.98 0.90Q390.02 0.90 383.23-5.41L383.23-5.41L383.23-5.41Q376.45-11.71 376.45-24.90L376.45-24.90L376.45-24.90Q376.45-38.40 383.20-44.54L383.20-44.54L383.20-44.54Q389.95-50.69 402.50-50.69L402.50-50.69L402.50-50.69Q408.58-50.69 413.89-49.41L413.89-49.41L413.89-49.41Q419.20-48.13 421.89-46.53L421.89-46.53L421.89-31.23L405.89-31.23L405.89-34.24L405.89-34.24Q405.89-36.93 404.77-38.11L404.77-38.11L404.77-38.11Q403.65-39.30 401.22-39.30L401.22-39.30L401.22-39.30Q398.78-39.30 397.66-38.11L397.66-38.11L397.66-38.11Q396.54-36.93 396.54-34.24L396.54-34.24L396.54-15.55L396.54-15.55Q396.54-12.86 397.66-11.68L397.66-11.68L397.66-11.68Q398.78-10.50 401.22-10.50L401.22-10.50L401.22-10.50Q403.65-10.50 404.77-11.68L404.77-11.68L404.77-11.68Q405.89-12.86 405.89-15.55L405.89-15.55L405.89-16L402.43-16L402.43-25.54L425.09-25.54ZM461.25-10.50L464.06-10.50L464.06 0L447.17 0L447.17-4.35L447.17-4.35Q445.76-2.30 443.23-0.70L443.23-0.70L443.23-0.70Q440.70 0.90 437.06 0.90L437.06 0.90L437.06 0.90Q432.26 0.90 429.50-1.66L429.50-1.66L429.50-1.66Q426.75-4.22 426.75-8.90L426.75-8.90L426.75-8.90Q426.75-20.99 447.30-21.31L447.30-21.31L447.30-21.31Q447.10-23.49 445.63-24.29L445.63-24.29L445.63-24.29Q444.16-25.09 440.64-25.09L440.64-25.09L440.64-25.09Q437.76-25.09 434.46-24.48L434.46-24.48L434.46-24.48Q431.17-23.87 428.42-22.85L428.42-22.85L428.42-34.62L428.42-34.62Q431.81-35.46 435.78-35.97L435.78-35.97L435.78-35.97Q439.74-36.48 443.52-36.48L443.52-36.48L443.52-36.48Q453.06-36.48 457.15-33.02L457.15-33.02L457.15-33.02Q461.25-29.57 461.25-22.34L461.25-22.34L461.25-10.50ZM447.17-14.59L447.17-14.98L447.17-14.98Q444.29-14.98 442.72-14.21L442.72-14.21L442.72-14.21Q441.15-13.44 441.15-11.65L441.15-11.65L441.15-11.65Q441.15-10.56 441.82-9.89L441.82-9.89L441.82-9.89Q442.50-9.22 443.71-9.22L443.71-9.22L443.71-9.22Q445.38-9.22 446.27-10.62L446.27-10.62L446.27-10.62Q447.17-12.03 447.17-14.59L447.17-14.59ZM486.46 0.06L466.11 0.06L466.11-10.50L468.93-10.50L468.93-39.30L466.11-39.30L466.11-49.79L483.65-49.79L483.65-10.50L486.46-10.50L486.46 0.06ZM508.86 0.06L488.51 0.06L488.51-10.50L491.33-10.50L491.33-39.30L488.51-39.30L488.51-49.79L506.05-49.79L506.05-10.50L508.86-10.50L508.86 0.06ZM529.98 0.90L529.98 0.90Q520.90 0.90 515.78-3.87L515.78-3.87L515.78-3.87Q510.66-8.64 510.66-17.79L510.66-17.79L510.66-17.79Q510.66-26.94 515.78-31.71L515.78-31.71L515.78-31.71Q520.90-36.48 529.98-36.48L529.98-36.48L529.98-36.48Q539.01-36.48 543.01-31.78L543.01-31.78L543.01-31.78Q547.01-27.07 547.01-20.10L547.01-20.10L547.01-15.49L526.27-15.49L526.27-15.10L526.27-15.10Q526.27-12.74 527.68-11.62L527.68-11.62L527.68-11.62Q529.09-10.50 532.35-10.50L532.35-10.50L532.35-10.50Q536.26-10.50 539.78-11.07L539.78-11.07L539.78-11.07Q543.30-11.65 545.92-12.54L545.92-12.54L545.92-2.30L545.92-2.30Q543.68-1.09 539.36-0.10L539.36-0.10L539.36-0.10Q535.04 0.90 529.98 0.90L529.98 0.90ZM526.27-22.53L533.70-22.53L533.70-23.30L533.70-23.30Q533.70-25.47 532.77-26.43L532.77-26.43L532.77-26.43Q531.84-27.39 529.98-27.39L529.98-27.39L529.98-27.39Q528.13-27.39 527.20-26.40L527.20-26.40L527.20-26.40Q526.27-25.41 526.27-23.30L526.27-23.30L526.27-22.53ZM576.26-36.48L576.26-36.48Q577.54-36.48 578.69-36.22L578.69-36.22L578.69-36.22Q579.84-35.97 580.61-35.58L580.61-35.58L580.61-23.36L580.61-23.36Q577.98-24.45 574.98-24.45L574.98-24.45L574.98-24.45Q570.94-24.45 568.77-22.34L568.77-22.34L568.77-22.34Q566.59-20.22 566.59-16.06L566.59-16.06L566.59-10.50L572.35-10.50L572.35 0L549.06 0L549.06-10.50L551.87-10.50L551.87-25.09L549.06-25.09L549.06-35.58L566.59-35.58L566.59-30.91L566.59-30.91Q568.38-33.60 570.69-35.04L570.69-35.04L570.69-35.04Q572.99-36.48 576.26-36.48L576.26-36.48ZM603.39-35.58L621.18-35.58L621.18-25.09L618.75-25.09L610.37-2.88L610.37-2.88Q607.23 5.50 603.20 9.70L603.20 9.70L603.20 9.70Q599.17 13.89 592.58 13.89L592.58 13.89L592.58 13.89Q589.89 13.89 587.14 13.34L587.14 13.34L587.14 13.34Q584.38 12.80 582.14 11.84L582.14 11.84L582.14 0.26L590.98 0.26L590.98 0.90L590.98 0.90Q590.98 2.50 592.64 2.50L592.64 2.50L592.64 2.50Q594.11 2.50 594.88 1.09L594.88 1.09L584.77-25.09L582.34-25.09L582.34-35.58L601.34-35.58L601.34-25.09L599.17-25.09L602.50-15.10L605.57-25.09L603.39-25.09L603.39-35.58Z" fill="url(#editing-glowing-gradient)"></path></g></g><style>text {
  font-size: 64px;
  font-family: Arial Black;
  dominant-baseline: central;
  text-anchor: middle;
}</style></svg>